<?xml version="1.0" encoding="UTF-8"?>
<svg id="_图层_2" data-name="图层 2" xmlns="http://www.w3.org/2000/svg" viewBox="0 0 1367.62 261.27">
  <defs>
    <style>
      .cls-1 {
        fill: #06f;
      }

      .cls-2 {
        fill: #ff6b00;
      }
    </style>
  </defs>
  <g id="_图层_1-2" data-name="图层 1">
    <g>
      <g>
        <g>
          <polygon class="cls-1" points="115.79 61.52 133.69 30.5 121.73 9.8 91.88 61.52 121.73 113.21 133.69 92.51 115.79 61.52"/>
          <polygon class="cls-1" points="82.96 66.66 50.74 66.66 20.88 118.38 44.78 118.38 62.7 87.36 71.01 87.36 88.9 118.38 112.81 118.38 82.96 66.66"/>
          <polygon class="cls-1" points="50.73 56.35 82.96 56.35 112.81 4.64 88.9 4.64 71.01 35.65 62.68 35.65 44.78 4.64 20.88 4.64 50.73 56.35"/>
          <polygon class="cls-1" points="41.8 61.5 11.95 9.78 0 30.5 17.9 61.52 0 92.51 11.95 113.23 41.8 61.5"/>
        </g>
        <polygon class="cls-1" points="54 0 65.29 19.57 68.39 19.57 79.68 0 54 0"/>
      </g>
      <rect class="cls-1" x="157.81" y="56.36" width="37.34" height="15.95"/>
      <g>
        <path class="cls-1" d="M1158.85,46.38c0-11.01-8.96-19.97-19.97-19.97h-82.77c-11.01,0-19.97,8.96-19.97,19.97v35.91c0,11.01,8.96,19.97,19.97,19.97h82.77c11.01,0,19.97-8.96,19.97-19.97V46.38Zm-15.95,35.91c0,2.21-1.8,4.01-4.02,4.01h-82.77c-2.22,0-4.02-1.8-4.02-4.01V46.38c0-2.21,1.8-4.01,4.02-4.01h82.77c2.22,0,4.02,1.8,4.02,4.01v35.91Z"/>
        <path class="cls-1" d="M1367.53,46.38c0-11.01-8.96-19.97-19.97-19.97h-102.73V102.25h102.73c11.01,0,19.97-8.96,19.97-19.97V46.38Zm-15.95,35.91c0,2.21-1.8,4.01-4.01,4.01h-86.78V42.36h86.78c2.21,0,4.01,1.8,4.01,4.01v35.91Z"/>
        <path class="cls-1" d="M503.67,26.41h-15.95v55.87c0,2.21-1.8,4.01-4.01,4.01h-82.77c-2.21,0-4.01-1.8-4.01-4.01V26.41h-15.95v55.87c0,11.01,8.96,19.97,19.97,19.97h82.77c11.01,0,19.97-8.96,19.97-19.97V26.41Z"/>
        <polygon class="cls-1" points="345.95 102.25 345.95 26.41 330 26.41 330 56.36 239.2 56.36 239.2 26.41 223.25 26.41 223.25 102.25 239.2 102.25 239.2 72.31 330 72.31 330 102.25 345.95 102.25"/>
        <polygon class="cls-1" points="985.18 26.41 985.18 82.82 985.18 82.84 893.59 27.56 891.65 26.41 891.48 26.41 877.63 26.41 877.63 102.25 893.59 102.25 893.59 45.84 893.59 45.82 985.18 101.11 987.08 102.25 987.28 102.25 1001.13 102.25 1001.13 26.41 985.18 26.41"/>
        <path class="cls-1" d="M659.86,26.41l-52.61,52.61-52.61-52.61h-15.95V102.25h15.95V48.97l47.2,47.2c4.23,0,6.6,0,10.83,0l47.2-47.2v53.28h15.95V26.41h-15.95Z"/>
        <polygon class="cls-2" points="774.64 84.98 759.46 102.25 793.99 102.25 778.81 84.98 774.64 84.98"/>
        <polygon class="cls-2" points="1203.74 42.19 1217.61 26.41 1186.06 26.41 1199.93 42.19 1203.74 42.19"/>
        <rect class="cls-2" x="1192.89" y="52.2" width="17.9" height="50.05"/>
        <polygon class="cls-2" points="785.06 26.41 776.72 26.41 768.38 26.41 701.72 102.25 724.28 102.25 776.72 42.59 829.16 102.25 851.73 102.25 785.06 26.41"/>
      </g>
      <path class="cls-1" d="M29.75,243.19L0,252.03v-10.21l29.75-8.94v-30.62H0v-9.62H29.75v-20.03h15.55v88.66h-15.55v-18.08Zm31.69-70.58h15.46v24.21l28.87-9.14v10.21l-28.87,9.24v44.53h31.5l-3.5,9.62h-36.16c-2.01,0-3.73-.73-5.15-2.19-1.43-1.46-2.14-3.19-2.14-5.2v-81.27Z"/>
      <path class="cls-1" d="M127.18,177.57h46.27l-1.56-4.96h16.43l1.46,4.96h45.49l-3.79,9.63H127.18v-9.63Zm19.44,56.77h16.72l-17.5,26.93h-16.72l17.5-26.93Zm-10.79-39.66h90.8v25.76c0,2.01-.71,3.74-2.14,5.2-1.42,1.46-3.18,2.19-5.25,2.19h-30.23v22.36l-4.86,11.08h-15.46l4.76-11.08v-22.36h-37.62v-33.15Zm75.24,23.53v-13.9h-59.69v13.9h59.69Zm4.76,16.14l17.5,26.93h-16.72l-17.5-26.93h16.72Z"/>
      <path class="cls-1" d="M297.76,196.53v-23.91h15.65v28.68l-5.25,7.19h13.9l38.5,52.79h-18.47l-36.16-49.68-36.07,49.68h-18.18l46.08-64.74Z"/>
      <path class="cls-1" d="M417.01,222h-13.71v9.82l-7.78,29.46h-15.17l7.78-29.46v-9.82h-11.18v-9.62h11.18v-28h-8.55v-9.63h65.04l-3.5,9.63h-9.04v28h13.03l-3.5,9.62h-9.53v39.27h-15.07v-39.27Zm0-9.62v-28h-13.71v28h13.71Zm51.04-37.14h16.53l-26.44,28.68h-16.53l26.44-28.68Zm0,28.68h16.53l-26.44,28.68h-16.53l26.44-28.68Zm0,28.68h16.53l-26.44,28.68h-16.53l26.44-28.68Z"/>
      <path class="cls-1" d="M503.35,186.22h15.75v-13.61h15.16v13.61h16.62l-3.5,9.62h-13.12v65.42h-15.16v-65.42h-15.75v-9.62Zm2.82,13.8h11.47l-2.63,61.24h-11.47l2.62-61.24Zm41.02,0l2.62,61.24h-11.47l-2.62-61.24h11.47Zm43.4,59.1c-1.46-1.43-2.19-3.18-2.19-5.25v-69.89h-18.57v53.95l-4.38,23.33h-14.87l4.28-23.33v-63.58h48.51v77.29h9.53l-3.5,9.62h-13.61c-2.01,0-3.74-.71-5.2-2.14Z"/>
      <path class="cls-1" d="M734.36,235.99v17.89c0,2.01-.71,3.74-2.14,5.2-1.43,1.46-3.14,2.19-5.15,2.19h-38.98v-25.57h44.23l-47.34-6.81-47.24,6.81h44.23v18.18c0,2.07-.71,3.82-2.14,5.25-1.43,1.42-3.18,2.14-5.25,2.14h-38.98v-25.27l-3.89,.58v-9.62l46.57-6.71v-1.65h-44.43v-9.62h44.43v-3.69h13.41v3.69h17.3l-1.46-3.31h13.32l1.56,3.31h13.8l-3.5,9.62h-41.02v1.65l46.66,6.71v9.62l-3.99-.58Zm-99.84-61.15h46.95v21.39c0,2.01-.71,3.73-2.14,5.15s-3.14,2.14-5.15,2.14h-39.66v-28.68Zm31.89,19.05v-9.43h-16.72v9.43h16.72Zm.39,57.74v-6.32h-16.04v6.32h16.04Zm21.68-76.8h46.95v21.39c0,2.01-.71,3.73-2.14,5.15-1.42,1.43-3.14,2.14-5.15,2.14h-39.66v-28.68Zm30.82,76.8v-6.32h-16.14v6.32h16.14Zm1.07-57.74v-9.43h-16.72v9.43h16.72Z"/>
      <path class="cls-1" d="M800.82,196.53v-23.91h15.65v28.68l-5.25,7.19h13.9l38.5,52.79h-18.47l-36.16-49.68-36.07,49.68h-18.18l46.08-64.74Z"/>
      <path class="cls-1" d="M894.41,174.36h36.46l14.29,31.21h-7.19v27.12c0,2.01-.71,3.74-2.14,5.2-1.43,1.46-3.18,2.19-5.25,2.19h-17.21l-3.5-9.63h12.64v-18.57h-21v39.76h43.94l-3.5,9.62h-48.41c-2.01,0-3.74-.71-5.2-2.14-1.46-1.43-2.19-3.18-2.19-5.25v-48.31h-6.12l14.39-31.21Zm33.44,27.9l-8.36-18.28h-13.71l-8.36,18.28h30.43Zm20.9-22.16h14.19v68.15h-14.19v-68.15Zm20.61-7h15.55v72.91l-4.96,15.26h-15.55l4.96-15.26v-72.91Z"/>
      <path class="cls-1" d="M1008.47,202.75h7.58l-3.99-10.11h15.55l3.89,10.11h7.1l3.99-10.11h15.46l-3.89,10.11h11.08l-3.5,9.63h-18.47v6.42h19.34l-3.5,9.62h-15.85v22.45l-2.14,10.4h-15.07l2.14-10.4v-22.45h-17.98v-9.62h17.98v-6.42h-19.73v-9.63Zm4.86,31.6h13.41l-3.89,26.93h-13.41l3.89-26.93Zm-3.79-54.73h18.28l-.87-6.9h15.55l.87,6.9h20.8l-3.5,9.62h-51.13v-9.62Zm48.31,54.73l3.89,26.93h-13.32l-3.89-26.93h13.32Zm8.85-57.36h31.01l1.36-4.18h15.07l-4.28,13.8h-28v15.36h33.34l-3.5,9.53h-5.15v49.77h-15.07v-49.77h-9.62v26.05l-3.69,23.72h-15.16l3.69-23.72v-60.56Z"/>
      <path class="cls-1" d="M1136.37,184.96h43.45v-12.35h16.04v12.35h43.75v48.02c0,2.07-.71,3.82-2.14,5.25-1.43,1.43-3.14,2.14-5.15,2.14h-36.46v20.9h-16.04v-20.9h-43.45v-55.41Zm43.45,45.79v-36.16h-27.8v36.16h27.8Zm44.13,0v-36.16h-28.09v36.16h28.09Z"/>
      <path class="cls-1" d="M1265.35,237.55v-59.69h15.36v59.69l-4.57,23.62h-15.36l4.57-23.62Zm40.83,23.62h-7.2c-2.01,0-3.74-.71-5.2-2.14-1.46-1.43-2.19-3.14-2.19-5.15v-81.27h15.55v79.04h33.73l-3.6,9.62h-31.11v-.1Zm12.05-82.92h15.36v45.49l3.5,17.11h-15.46l-3.4-17.11v-45.49Zm29.46-.39h15.36v59.69l4.57,23.62h-15.36l-4.57-23.62v-59.69Z"/>
    </g>
  </g>
</svg>
